<svg width="258" height="40" viewBox="0 0 258 40" fill="none" xmlns="http://www.w3.org/2000/svg">
<g clip-path="url(#clip0_11432_48357)">
<g clip-path="url(#clip1_11432_48357)">
<path fill-rule="evenodd" clip-rule="evenodd" d="M0 19.9949L20.0051 0C8.95753 0 0 8.95753 0 19.9949ZM19.9949 39.9897L20.0051 40C31.0528 40 40.0103 31.0425 40.0103 20.0051L20.0051 40V39.9897L19.9949 39.9897ZM19.9949 39.9897L0 19.9949C0 31.039 8.95196 39.9841 19.9949 39.9897ZM9.99743 19.9949L10.0026 20L9.99743 20.0051V19.9949ZM10.0026 20L24.9987 5.00386L20.0052 0C31.0528 0 40 8.95753 40 19.9949L27.5007 7.4955L17.4826 17.4929L22.4865 22.4968L27.4904 17.4929L29.9923 19.9949L19.9949 29.9923L10.0026 20Z" fill="#C00014"/>
<path d="M40 19.9949L20 40L0 19.9949L20 0L25.0026 5.00386L10.0051 19.9949L20 30.0026L29.9949 19.9949L27.4936 17.5032L22.5013 22.4968L17.4987 17.5032L27.4936 7.4955L40 19.9949Z" fill="white"/>
</g>
<path d="M140.908 16.1251C140.908 15.0577 141.755 14.5129 142.8 14.5129C143.844 14.5129 144.772 15.1022 144.784 16.5698H147.511C147.476 13.2453 145.074 12 142.8 12C140.409 12 138.042 13.4121 138.042 16.1251C138.042 20.4726 144.819 20.6171 144.819 23.6525C144.819 24.7867 143.925 25.4204 142.73 25.4204C141.535 25.4204 140.513 24.6199 140.386 23.0855H137.601C137.705 26.5323 140.293 27.9778 142.73 27.9778C145.167 27.9778 147.685 26.7436 147.685 23.6525C147.685 18.9937 140.908 18.7047 140.908 16.1251ZM213.983 22.7074L212.312 12.5003H209.26L207.589 22.7074L205.709 12.5003H202.924L205.906 27.4885H209.074L210.78 17.048L212.324 27.4885H215.515L218.648 12.5003H215.84L213.983 22.7074ZM254.913 23.5413C254.658 24.2196 254.147 24.9757 252.395 24.9757H251.188V15.0354H252.395C254.147 15.0354 254.658 15.7804 254.913 16.4587C255.18 17.148 255.18 17.9819 255.18 20.0056C255.18 22.0292 255.18 22.8631 254.913 23.5525M252.523 12.5115H248.368V27.4997H252.523C254.971 27.4997 256.538 26.6991 257.257 25.1758C257.861 23.9194 258 22.9632 258 19.9944C258 17.0257 257.849 16.0695 257.257 14.8131C256.538 13.2898 254.971 12.4892 252.523 12.4892M119.671 23.5413C119.416 24.2196 118.905 24.9757 117.153 24.9757H115.946V15.0354H117.153C118.905 15.0354 119.416 15.7804 119.671 16.4587C119.927 17.148 119.938 17.9819 119.938 20.0056C119.938 22.0292 119.938 22.8631 119.671 23.5525M117.281 12.5115H113.115V27.4997H117.281C119.729 27.4997 121.296 26.6991 122.015 25.1758C122.619 23.9194 122.758 22.9632 122.758 19.9944C122.758 17.0257 122.607 16.0695 122.015 14.8131C121.284 13.2898 119.729 12.4892 117.281 12.4892M101.51 23.5302C101.255 24.2085 100.744 24.9646 98.9916 24.9646H97.7847V15.0354H98.9916C100.744 15.0354 101.255 15.7804 101.51 16.4587C101.777 17.148 101.788 17.9819 101.788 20.0056C101.788 22.0292 101.788 22.8631 101.51 23.5525M99.1193 12.5115H94.9532V27.4997H99.1193C101.568 27.4997 103.135 26.6991 103.854 25.1758C104.457 23.9194 104.608 22.9632 104.608 19.9944C104.608 17.0257 104.457 16.0695 103.854 14.8131C103.135 13.2898 101.568 12.4892 99.1193 12.4892M178.995 21.9958L175.107 12.4892H171.788V27.4774H174.527V17.2036L178.821 27.4885H181.722V12.5003H178.995V21.9958ZM239.583 19.3162H237.645V14.9687H239.583C241.15 14.9687 241.742 15.7248 241.742 17.1369C241.742 18.549 241.15 19.3162 239.583 19.3162ZM244.666 17.1369C244.666 14.1459 242.949 12.5003 239.723 12.5003H234.732V27.4885H237.645V21.7735H239.583L241.893 27.4885H245.026L242.403 21.2509C243.9 20.5504 244.666 19.1383 244.666 17.1369ZM224.3 22.2182L225.89 15.7248L227.479 22.2182H224.311H224.3ZM224.01 12.5003L220.099 27.4885H223.012L223.708 24.6643H228.071L228.756 27.4885H231.669L227.758 12.5003H224.01ZM194.104 22.2182L195.694 15.7248L197.284 22.2182H194.116H194.104ZM193.814 12.5003L189.903 27.4885H192.816L193.501 24.6643H197.864L198.549 27.4885H201.462L197.551 12.5003H193.803H193.814ZM88.1528 23.9083C87.9903 24.9201 87.1548 25.376 86.122 25.376C85.0891 25.376 84.2536 24.9201 84.0911 23.9083C84.0099 23.4079 83.9983 21.9625 83.9983 19.9944C83.9983 18.0264 83.9983 16.5698 84.0911 16.0695C84.2536 15.0577 85.0891 14.6018 86.122 14.6018C87.1548 14.6018 87.9903 15.0466 88.1528 16.0695C88.234 16.5698 88.2456 18.0153 88.2456 19.9944C88.2456 21.9736 88.2456 23.419 88.1528 23.9083ZM91.0076 15.6359C90.7174 13.8568 89.3829 12 86.1104 12C82.8378 12 81.5033 13.8568 81.2132 15.6359C81.0739 16.492 81.0739 18.082 81.0739 19.9944C81.0739 21.9069 81.0739 23.4858 81.2132 24.353C81.5033 26.132 82.8378 27.9889 86.1104 27.9889C89.3829 27.9889 90.7174 26.132 91.0076 24.353C91.1468 23.4969 91.1468 21.9069 91.1468 19.9944C91.1468 18.082 91.1468 16.492 91.0076 15.6359ZM74.5056 23.9194C74.3431 24.9312 73.5076 25.3871 72.4748 25.3871C71.4419 25.3871 70.6064 24.9423 70.4323 23.9194C70.3511 23.419 70.3511 21.9736 70.3511 20.0056C70.3511 18.0375 70.3511 16.581 70.4323 16.0917C70.5948 15.0799 71.4303 14.624 72.4748 14.624C73.5192 14.624 74.3431 15.0799 74.5056 16.0917C74.5868 16.5921 74.5868 18.0375 74.5868 20.0056C74.5868 21.9736 74.5868 23.419 74.5056 23.9194ZM77.3604 15.647C77.0703 13.868 75.7473 12.0111 72.4632 12.0111C69.179 12.0111 67.8561 13.8791 67.566 15.647C67.4267 16.5031 67.4267 18.0931 67.4267 20.0056C67.4267 21.918 67.4267 23.4969 67.566 24.3641C67.8561 26.1432 69.179 28 72.4632 28C75.7473 28 77.0703 26.1432 77.3604 24.3641C77.4996 23.4969 77.4996 21.918 77.4996 20.0056C77.4996 18.0931 77.4996 16.5031 77.3604 15.647ZM151.294 27.4885H154.207V12.5003H151.294V27.4885ZM129.292 21.1953H134.026V18.6602H129.292V15.0243H134.641V12.4892H126.46V27.4774H134.816V24.9423H129.292V21.1842V21.1953ZM58.9784 21.8513H60.9629C60.9629 22.8297 60.9629 23.5747 60.9048 23.9194C60.7308 24.9868 60.0461 25.3871 58.9668 25.3871C57.8876 25.3871 57.1565 24.9423 56.994 23.9194C56.9128 23.419 56.9012 21.9736 56.9012 20.0056C56.9012 18.0375 56.9012 16.581 56.994 16.0917C57.1565 15.0799 57.876 14.624 58.9088 14.624C59.9416 14.624 60.6263 15.1133 60.7888 16.0917C60.8236 16.303 60.8468 16.8478 60.8584 17.3148H63.69C63.69 16.7589 63.6552 16.025 63.5971 15.647C63.3186 13.9236 62.1814 12.0111 58.9552 12.0111C55.7291 12.0111 54.4294 13.8791 54.1393 15.647C54 16.5031 54 18.0931 54 20.0056C54 21.918 54 23.4969 54.1393 24.3641C54.4294 26.1543 55.8335 28 58.7347 28C60.1389 28 61.1369 27.4774 61.8332 26.4878L62.2278 27.5108H63.7364V21.8624V19.4941H58.9784V21.8624V21.8513ZM163.085 21.8513H165.069C165.069 22.8297 165.069 23.5747 165.011 23.9194C164.837 24.9868 164.152 25.3871 163.073 25.3871C161.994 25.3871 161.263 24.9423 161.1 23.9194C161.019 23.419 161.019 21.9736 161.019 20.0056C161.019 18.0375 161.019 16.581 161.1 16.0917C161.263 15.0799 161.982 14.624 163.015 14.624C164.048 14.624 164.733 15.1133 164.895 16.0917C164.93 16.303 164.953 16.8478 164.976 17.3148H167.808C167.808 16.7589 167.773 16.025 167.715 15.647C167.436 13.9236 166.299 12.0111 163.073 12.0111C159.847 12.0111 158.547 13.8791 158.257 15.647C158.118 16.5031 158.118 18.0931 158.118 20.0056C158.118 21.918 158.118 23.4969 158.257 24.3641C158.547 26.1543 159.94 28 162.841 28C164.245 28 165.243 27.4774 165.939 26.4878L166.334 27.5108H167.843V21.8624V19.4941H163.085V21.8624V21.8513Z" fill="black"/>
</g>
<defs>
<clipPath id="clip0_11432_48357">
<rect width="258" height="40" fill="white"/>
</clipPath>
<clipPath id="clip1_11432_48357">
<rect width="40" height="40" fill="white"/>
</clipPath>
</defs>
</svg>
